<mxfile host="app.diagrams.net" modified="2024-03-10T09:06:07.887Z" agent="Mozilla/5.0 (Windows NT 10.0; Win64; x64) AppleWebKit/537.36 (KHTML, like Gecko) Chrome/122.0.0.0 Safari/537.36" version="24.0.1" etag="Z29-FbBgyNL1uAMkmZAF" type="github">
  <diagram name="第 1 页" id="qgz66oWiAH34kU1Vi8FH">
    <mxGraphModel>
      <root>
        <mxCell id="0" />
        <mxCell id="1" parent="0" />
      </root>
    </mxGraphModel>
  </diagram>
</mxfile>
